<svg xmlns="http://www.w3.org/2000/svg" width="138.892" height="111.097" viewBox="0 0 138.892 111.097">
  <path id="Icon_awesome-code" data-name="Icon awesome-code" d="M60.526,110.991,47.288,107.15a2.608,2.608,0,0,1-1.779-3.233L75.13,1.882A2.608,2.608,0,0,1,78.363.1L91.6,3.944A2.608,2.608,0,0,1,93.38,7.177L63.759,109.212a2.6,2.6,0,0,1-3.233,1.779ZM35.787,86.643l9.44-10.069a2.6,2.6,0,0,0-.174-3.732l-19.66-17.3,19.66-17.3a2.586,2.586,0,0,0,.174-3.732l-9.44-10.069a2.607,2.607,0,0,0-3.689-.109L.828,53.637a2.587,2.587,0,0,0,0,3.8L32.1,86.752a2.587,2.587,0,0,0,3.689-.109Zm71,.13,31.27-29.317a2.587,2.587,0,0,0,0-3.8L106.79,24.32a2.628,2.628,0,0,0-3.689.109L93.662,34.5a2.6,2.6,0,0,0,.174,3.732L113.5,55.547l-19.66,17.3a2.586,2.586,0,0,0-.174,3.732l9.44,10.069a2.607,2.607,0,0,0,3.689.13Z" transform="translate(0.002 -0.003)"/>
</svg>
