<svg xmlns="http://www.w3.org/2000/svg" width="107.5" height="107.5" viewBox="0 0 107.5 107.5">
  <path id="Icon_awesome-draw-polygon" data-name="Icon awesome-draw-polygon" d="M92.143,79.036c-.084,0-.161.024-.245.024L82.492,63.386a14.814,14.814,0,0,0,0-14.772L91.9,32.94c.084,0,.161.024.245.024A15.357,15.357,0,1,0,78.917,9.929H28.583a15.311,15.311,0,1,0-20.9,20.9V81.164a15.312,15.312,0,1,0,20.9,20.907H78.914A15.33,15.33,0,1,0,92.143,79.036ZM23.036,81.167V30.833a15.315,15.315,0,0,0,5.548-5.548h50L69.352,40.667c-.084,0-.161-.024-.245-.024a15.357,15.357,0,1,0,0,30.714c.084,0,.161-.024.245-.024l9.229,15.381h-50A15.3,15.3,0,0,0,23.036,81.167ZM65.268,56a3.839,3.839,0,1,1,3.839,3.839A3.844,3.844,0,0,1,65.268,56ZM95.982,17.607a3.839,3.839,0,1,1-3.839-3.839A3.844,3.844,0,0,1,95.982,17.607ZM15.357,13.768a3.839,3.839,0,1,1-3.839,3.839A3.844,3.844,0,0,1,15.357,13.768ZM11.518,94.393a3.839,3.839,0,1,1,3.839,3.839A3.844,3.844,0,0,1,11.518,94.393Zm80.625,3.839a3.839,3.839,0,1,1,3.839-3.839A3.844,3.844,0,0,1,92.143,98.232Z" transform="translate(0 -2.25)"/>
</svg>
