<svg width="52.426" height="65.281" viewBox="0 0 52.426 65.281">
  <path id="Icon_awesome-angle-double-down" data-name="Icon awesome-angle-double-down" d="M23.425,36.673,1.151,14.4a3.914,3.914,0,0,1,0-5.552l3.7-3.7a3.915,3.915,0,0,1,5.552,0L26.193,20.933,41.981,5.145a3.915,3.915,0,0,1,5.552,0L51.268,8.83a3.915,3.915,0,0,1,0,5.552L28.994,36.656A3.92,3.92,0,0,1,23.425,36.673Zm5.569,31.446L51.268,45.844a3.914,3.914,0,0,0,0-5.552l-3.7-3.7a3.915,3.915,0,0,0-5.552,0l-15.8,15.772L10.421,36.574a3.914,3.914,0,0,0-5.552,0l-3.718,3.7a3.915,3.915,0,0,0,0,5.552L23.425,68.1A3.92,3.92,0,0,0,28.994,68.118Z" transform="translate(0.004 -3.99)"/>
</svg>
