<svg xmlns="http://www.w3.org/2000/svg" width="1920" height="448.696" viewBox="0 0 1920 448.696">
  <g id="Path_7" data-name="Path 7" transform="translate(0 6.696)" fill="#5b4ecc">
    <path d="M 1919.5 441.4999694824219 L 0.5 441.4999694824219 L 0.5 0.4395360052585602 C 2.892953872680664 0.1340056508779526 15.02744579315186 -1.366750001907349 33.58023834228516 -2.85027289390564 C 45.72714233398438 -3.821463346481323 58.20761871337891 -4.595273017883301 70.67500305175781 -5.150272846221924 C 86.25856781005859 -5.843844413757324 101.8657150268555 -6.195749282836914 117.0626220703125 -6.195749282836914 C 155.7504730224609 -6.195749282836914 192.0495300292969 -3.944558620452881 224.9509582519531 0.4954414367675781 C 250.4064331054688 3.930679559707642 282.1697692871094 9.235441207885742 319.3587951660156 16.2625846862793 C 349.1130981445313 21.88472747802734 382.3869018554688 28.61591720581055 418.2554626464844 36.26853561401367 C 479.1424255371094 49.25901031494141 527.0899658203125 60.5655403137207 527.8560180664063 60.74649047851563 C 528.231689453125 60.84632873535156 539.9951782226563 63.95817947387695 561.67236328125 68.51353454589844 C 581.9026489257813 72.76472473144531 615.1561889648438 79.17948913574219 658.6923828125 85.59758758544922 C 707.6228637695313 92.81092071533203 759.3040771484375 98.55829620361328 812.2997436523438 102.6802062988281 C 878.5433349609375 107.8323440551758 947.0397338867188 110.4447250366211 1015.886901855469 110.4447250366211 C 1053.611938476563 110.4447250366211 1092.048095703125 109.6549682617188 1130.127807617188 108.0975875854492 C 1229.116943359375 104.0492477416992 1305.65234375 100.4937744140625 1381.236938476563 95.28543853759766 C 1417.126953125 92.81234741210938 1452.134033203125 90.02615356445313 1491.406616210938 86.51686859130859 C 1528.22021484375 83.22758483886719 1569.263793945313 79.25424957275391 1620.572631835938 74.0130615234375 C 1672.867797851563 68.67115783691406 1723.5009765625 64.75877380371094 1771.0654296875 62.38448715209961 C 1806.73876953125 60.60377502441406 1840.239990234375 59.7009162902832 1870.638793945313 59.7009162902832 C 1899.884521484375 59.7009162902832 1916.562255859375 60.5660400390625 1919.5 60.73268890380859 L 1919.5 441.4999694824219 Z" stroke="none"/>
    <path d="M 117.0626220703125 -5.69573974609375 C 101.875 -5.69573974609375 86.277587890625 -5.344329833984375 70.703369140625 -4.6510009765625 C 58.2427978515625 -4.096466064453125 45.769287109375 -3.3231201171875 33.6290283203125 -2.3524169921875 C 16.01806640625 -0.944488525390625 4.193603515625 0.479095458984375 1 0.880126953125 L 1 440.9999694824219 L 1919 440.9999694824219 L 1919 61.20578002929688 C 1915.037109375 60.9906005859375 1898.575561523438 60.20071411132813 1870.638549804688 60.200927734375 C 1840.246704101563 60.20114135742188 1806.753784179688 61.103759765625 1771.090454101563 62.88400268554688 C 1723.533569335938 65.2578125 1672.909301757813 69.16949462890625 1620.62353515625 74.51043701171875 C 1569.312377929688 79.75186157226563 1528.266845703125 83.72518920898438 1491.451171875 87.01495361328125 C 1452.175048828125 90.52447509765625 1417.164794921875 93.3109130859375 1381.271484375 95.78424072265625 C 1305.680908203125 100.9930725097656 1229.1416015625 104.5485229492188 1130.148315429688 108.5971069335938 C 1092.059326171875 110.1549682617188 1053.616455078125 110.9447326660156 1015.886901855469 110.9447326660156 C 947.0271606445313 110.9447326660156 878.517333984375 108.3318786621094 812.26123046875 103.1787719726563 C 759.2540283203125 99.055908203125 707.5614013671875 93.30734252929688 658.6195068359375 86.09234619140625 C 615.0711669921875 79.67233276367188 581.806640625 73.25543212890625 561.5697021484375 69.0028076171875 C 539.9267578125 64.4547119140625 528.154296875 61.34298706054688 527.7301025390625 61.23028564453125 C 526.599609375 60.96359252929688 478.7962646484375 49.69644165039063 418.1533203125 36.758056640625 C 382.2880859375 29.10592651367188 349.01806640625 22.37567138671875 319.26708984375 16.75399780273438 C 282.086181640625 9.728546142578125 250.3311767578125 4.424957275390625 224.884033203125 0.99090576171875 C 192.0045166015625 -3.44598388671875 155.7281494140625 -5.69573974609375 117.0626220703125 -5.69573974609375 M 117.0625 -6.695709228515625 C 150.401611328125 -6.695709228515625 187.80029296875 -5.02239990234375 225.017822265625 -3.0517578125e-05 C 336.6568603515625 15.06521606445313 527.9769287109375 60.26116943359375 527.9769287109375 60.26116943359375 C 527.9769287109375 60.26116943359375 714.10986328125 109.9447326660156 1015.886901855469 109.9447326660156 C 1052.321411132813 109.9447326660156 1090.425048828125 109.2210083007813 1130.107421875 107.5980529785156 C 1340.44140625 98.99591064453125 1425.889038085938 93.3973388671875 1620.52197265625 73.51568603515625 C 1737.296875 61.587158203125 1821.757568359375 59.2010498046875 1870.638671875 59.20083618164063 C 1903.229370117188 59.20068359375 1920 60.26116943359375 1920 60.26116943359375 L 1920 441.9999694824219 L 0 441.9999694824219 L 0 -3.0517578125e-05 C 0 -3.0517578125e-05 50.3966064453125 -6.695709228515625 117.0625 -6.695709228515625 Z" stroke="none" fill="#707070"/>
  </g>
</svg>
